<svg id="visual" viewBox="0 0 600 300" width="600" height="300" xmlns="http://www.w3.org/2000/svg" xmlns:xlink="http://www.w3.org/1999/xlink" version="1.1"><rect x="0" y="0" width="600" height="300" fill="#EDF2EF"></rect><path d="M0 221L11.2 221C22.3 221 44.7 221 66.8 223.2C89 225.3 111 229.7 133.2 226.5C155.3 223.3 177.7 212.7 200 212.2C222.3 211.7 244.7 221.3 266.8 218C289 214.7 311 198.3 333.2 194.7C355.3 191 377.7 200 400 205.3C422.3 210.7 444.7 212.3 466.8 215.2C489 218 511 222 533.2 223.3C555.3 224.7 577.7 223.3 588.8 222.7L600 222L600 0L588.8 0C577.7 0 555.3 0 533.2 0C511 0 489 0 466.8 0C444.7 0 422.3 0 400 0C377.7 0 355.3 0 333.2 0C311 0 289 0 266.8 0C244.7 0 222.3 0 200 0C177.7 0 155.3 0 133.2 0C111 0 89 0 66.8 0C44.7 0 22.3 0 11.2 0L0 0Z" fill="#4574c4"></path><path d="M0 176L11.2 178.5C22.3 181 44.7 186 66.8 183.2C89 180.3 111 169.7 133.2 167C155.3 164.3 177.7 169.7 200 172.2C222.3 174.7 244.7 174.3 266.8 171.3C289 168.3 311 162.7 333.2 165.3C355.3 168 377.7 179 400 182.7C422.3 186.3 444.7 182.7 466.8 181.8C489 181 511 183 533.2 179.8C555.3 176.7 577.7 168.3 588.8 164.2L600 160L600 0L588.8 0C577.7 0 555.3 0 533.2 0C511 0 489 0 466.8 0C444.7 0 422.3 0 400 0C377.7 0 355.3 0 333.2 0C311 0 289 0 266.8 0C244.7 0 222.3 0 200 0C177.7 0 155.3 0 133.2 0C111 0 89 0 66.8 0C44.7 0 22.3 0 11.2 0L0 0Z" fill="#3d609e"></path><path d="M0 122L11.2 125.8C22.3 129.7 44.7 137.3 66.8 136.8C89 136.3 111 127.7 133.2 121.7C155.3 115.7 177.7 112.3 200 116.7C222.3 121 244.7 133 266.8 135.7C289 138.3 311 131.7 333.2 131.2C355.3 130.7 377.7 136.3 400 134C422.3 131.7 444.7 121.3 466.8 117.3C489 113.3 511 115.7 533.2 117.5C555.3 119.3 577.7 120.7 588.8 121.3L600 122L600 0L588.8 0C577.7 0 555.3 0 533.2 0C511 0 489 0 466.8 0C444.7 0 422.3 0 400 0C377.7 0 355.3 0 333.2 0C311 0 289 0 266.8 0C244.7 0 222.3 0 200 0C177.7 0 155.3 0 133.2 0C111 0 89 0 66.8 0C44.7 0 22.3 0 11.2 0L0 0Z" fill="#354c7a"></path><path d="M0 87L11.2 87.8C22.3 88.7 44.7 90.3 66.8 88.7C89 87 111 82 133.2 82.2C155.3 82.3 177.7 87.7 200 88.8C222.3 90 244.7 87 266.8 87.2C289 87.3 311 90.7 333.2 90.7C355.3 90.7 377.7 87.3 400 85.8C422.3 84.3 444.7 84.7 466.8 82.5C489 80.3 511 75.7 533.2 74C555.3 72.3 577.7 73.7 588.8 74.3L600 75L600 0L588.8 0C577.7 0 555.3 0 533.2 0C511 0 489 0 466.8 0C444.7 0 422.3 0 400 0C377.7 0 355.3 0 333.2 0C311 0 289 0 266.8 0C244.7 0 222.3 0 200 0C177.7 0 155.3 0 133.2 0C111 0 89 0 66.8 0C44.7 0 22.3 0 11.2 0L0 0Z" fill="#2c3958"></path><path d="M0 38L11.2 39.5C22.3 41 44.7 44 66.8 45C89 46 111 45 133.2 44.7C155.3 44.3 177.7 44.7 200 44.8C222.3 45 244.7 45 266.8 46.8C289 48.7 311 52.3 333.2 52.7C355.3 53 377.7 50 400 48.7C422.3 47.3 444.7 47.7 466.8 47.7C489 47.7 511 47.3 533.2 46.7C555.3 46 577.7 45 588.8 44.5L600 44L600 0L588.8 0C577.7 0 555.3 0 533.2 0C511 0 489 0 466.8 0C444.7 0 422.3 0 400 0C377.7 0 355.3 0 333.2 0C311 0 289 0 266.8 0C244.7 0 222.3 0 200 0C177.7 0 155.3 0 133.2 0C111 0 89 0 66.8 0C44.7 0 22.3 0 11.2 0L0 0Z" fill="#212738"></path></svg>