<svg id="visual" viewBox="0 0 960 300" width="960" height="300" xmlns="http://www.w3.org/2000/svg" xmlns:xlink="http://www.w3.org/1999/xlink" version="1.1"><rect x="0" y="0" width="960" height="300" fill="#EDF2EF"></rect><path d="M0 260L10.7 254.2C21.3 248.3 42.7 236.7 64 234.2C85.3 231.7 106.7 238.3 128 238.5C149.3 238.7 170.7 232.3 192 225.8C213.3 219.3 234.7 212.7 256 216.8C277.3 221 298.7 236 320 237.3C341.3 238.7 362.7 226.3 384 226.7C405.3 227 426.7 240 448 243.7C469.3 247.3 490.7 241.7 512 232.7C533.3 223.7 554.7 211.3 576 214.8C597.3 218.3 618.7 237.7 640 248C661.3 258.3 682.7 259.7 704 254.2C725.3 248.7 746.7 236.3 768 233.2C789.3 230 810.7 236 832 235.5C853.3 235 874.7 228 896 225.5C917.3 223 938.7 225 949.3 226L960 227L960 0L949.3 0C938.7 0 917.3 0 896 0C874.7 0 853.3 0 832 0C810.7 0 789.3 0 768 0C746.7 0 725.3 0 704 0C682.7 0 661.3 0 640 0C618.7 0 597.3 0 576 0C554.7 0 533.3 0 512 0C490.7 0 469.3 0 448 0C426.7 0 405.3 0 384 0C362.7 0 341.3 0 320 0C298.7 0 277.3 0 256 0C234.7 0 213.3 0 192 0C170.7 0 149.3 0 128 0C106.7 0 85.3 0 64 0C42.7 0 21.3 0 10.7 0L0 0Z" fill="#4574c4"></path><path d="M0 163L10.7 171.7C21.3 180.3 42.7 197.7 64 199C85.3 200.3 106.7 185.7 128 184.7C149.3 183.7 170.7 196.3 192 197.7C213.3 199 234.7 189 256 188.3C277.3 187.7 298.7 196.3 320 194.8C341.3 193.3 362.7 181.7 384 176.8C405.3 172 426.7 174 448 181.7C469.3 189.3 490.7 202.7 512 209.2C533.3 215.7 554.7 215.3 576 212C597.3 208.7 618.7 202.3 640 197C661.3 191.7 682.7 187.3 704 180.5C725.3 173.7 746.7 164.3 768 168.7C789.3 173 810.7 191 832 199.2C853.3 207.3 874.7 205.7 896 203.5C917.3 201.3 938.7 198.7 949.3 197.3L960 196L960 0L949.3 0C938.7 0 917.3 0 896 0C874.7 0 853.3 0 832 0C810.7 0 789.3 0 768 0C746.7 0 725.3 0 704 0C682.7 0 661.3 0 640 0C618.7 0 597.3 0 576 0C554.7 0 533.3 0 512 0C490.7 0 469.3 0 448 0C426.7 0 405.3 0 384 0C362.7 0 341.3 0 320 0C298.7 0 277.3 0 256 0C234.7 0 213.3 0 192 0C170.7 0 149.3 0 128 0C106.7 0 85.3 0 64 0C42.7 0 21.3 0 10.7 0L0 0Z" fill="#3c66ad"></path><path d="M0 158L10.7 158.3C21.3 158.7 42.7 159.3 64 160.7C85.3 162 106.7 164 128 155.7C149.3 147.3 170.7 128.7 192 124.8C213.3 121 234.7 132 256 135.2C277.3 138.3 298.7 133.7 320 132.3C341.3 131 362.7 133 384 137.3C405.3 141.7 426.7 148.3 448 149.5C469.3 150.7 490.7 146.3 512 144C533.3 141.7 554.7 141.3 576 143C597.3 144.7 618.7 148.3 640 151.2C661.3 154 682.7 156 704 153.7C725.3 151.3 746.7 144.7 768 137.8C789.3 131 810.7 124 832 125.7C853.3 127.3 874.7 137.7 896 139C917.3 140.3 938.7 132.7 949.3 128.8L960 125L960 0L949.3 0C938.7 0 917.3 0 896 0C874.7 0 853.3 0 832 0C810.7 0 789.3 0 768 0C746.7 0 725.3 0 704 0C682.7 0 661.3 0 640 0C618.7 0 597.3 0 576 0C554.7 0 533.3 0 512 0C490.7 0 469.3 0 448 0C426.7 0 405.3 0 384 0C362.7 0 341.3 0 320 0C298.7 0 277.3 0 256 0C234.7 0 213.3 0 192 0C170.7 0 149.3 0 128 0C106.7 0 85.3 0 64 0C42.7 0 21.3 0 10.7 0L0 0Z" fill="#335897"></path><path d="M0 103L10.7 102.5C21.3 102 42.7 101 64 100.2C85.3 99.3 106.7 98.7 128 96.7C149.3 94.7 170.7 91.3 192 89C213.3 86.7 234.7 85.3 256 84.5C277.3 83.7 298.7 83.3 320 82C341.3 80.7 362.7 78.3 384 77.5C405.3 76.7 426.7 77.3 448 77C469.3 76.7 490.7 75.3 512 81.5C533.3 87.7 554.7 101.3 576 103.3C597.3 105.3 618.7 95.7 640 91.7C661.3 87.7 682.7 89.3 704 89C725.3 88.7 746.7 86.3 768 88.2C789.3 90 810.7 96 832 98.5C853.3 101 874.7 100 896 102.2C917.3 104.3 938.7 109.7 949.3 112.3L960 115L960 0L949.3 0C938.7 0 917.3 0 896 0C874.7 0 853.3 0 832 0C810.7 0 789.3 0 768 0C746.7 0 725.3 0 704 0C682.7 0 661.3 0 640 0C618.7 0 597.3 0 576 0C554.7 0 533.3 0 512 0C490.7 0 469.3 0 448 0C426.7 0 405.3 0 384 0C362.7 0 341.3 0 320 0C298.7 0 277.3 0 256 0C234.7 0 213.3 0 192 0C170.7 0 149.3 0 128 0C106.7 0 85.3 0 64 0C42.7 0 21.3 0 10.7 0L0 0Z" fill="#2a4a82"></path><path d="M0 61L10.7 58.2C21.3 55.3 42.7 49.7 64 45.3C85.3 41 106.7 38 128 37.8C149.3 37.7 170.7 40.3 192 41.2C213.3 42 234.7 41 256 41.8C277.3 42.7 298.7 45.3 320 50.8C341.3 56.3 362.7 64.7 384 67C405.3 69.3 426.7 65.7 448 60.5C469.3 55.3 490.7 48.7 512 47C533.3 45.3 554.7 48.7 576 52.7C597.3 56.7 618.7 61.3 640 56.8C661.3 52.3 682.7 38.7 704 32.8C725.3 27 746.7 29 768 29.8C789.3 30.7 810.7 30.3 832 35C853.3 39.7 874.7 49.3 896 54.7C917.3 60 938.7 61 949.3 61.5L960 62L960 0L949.3 0C938.7 0 917.3 0 896 0C874.7 0 853.3 0 832 0C810.7 0 789.3 0 768 0C746.7 0 725.3 0 704 0C682.7 0 661.3 0 640 0C618.7 0 597.3 0 576 0C554.7 0 533.3 0 512 0C490.7 0 469.3 0 448 0C426.7 0 405.3 0 384 0C362.7 0 341.3 0 320 0C298.7 0 277.3 0 256 0C234.7 0 213.3 0 192 0C170.7 0 149.3 0 128 0C106.7 0 85.3 0 64 0C42.7 0 21.3 0 10.7 0L0 0Z" fill="#223d6d"></path></svg>